/* XPM */
static char *cc8016b977b04c8da85afa9d8cbfa8e2h8HfnlJhE3tSW5Yb[] = {
/* columns rows colors chars-per-pixel */
"32 32 4 1 ",
"  c black",
". c #010100",
"X c #010001",
"o c #000101",
/* pixels */
"                   o      .     ",
"               .    o     o    o",
"              .        . .      ",
"         .o      . o o.  o  o o ",
"          o    o    .     .     ",
"        o  o      o.       .    ",
"                 o          .   ",
"            o            o      ",
"     o     o        oo..        ",
"    o               o           ",
"       o                        ",
"                .    .oo .      ",
"        o       .    oo       .o",
"         o               .      ",
"              o       o     .   ",
"            o     .    .o   .   ",
"        o                 o  .  ",
"     .  o            .          ",
"  o .     o  o   .    o         ",
"     .                    ..   o",
"  o       ..         .          ",
"   .                o           ",
"   .   .   o           o   o  o ",
" o  . o         . o             ",
"            o                  .",
" .o        o.  o           .    ",
"         o o .          o.   o  ",
"  .          o     o o         o",
"           .              oo    ",
"        o     .    o     .o     ",
"  o.                           o",
" ..    o        o        .      "
};
