/* XPM */
static char *d3a2677899d94997d8d399255f42c94d0prYooE276gFjQLy[] = {
/* columns rows colors chars-per-pixel */
"32 32 9 1 ",
"  c black",
". c #010100",
"X c #000101",
"o c #FE0000",
"O c #006CFF",
"+ c #86898A",
"@ c #86888B",
"# c #FEFFFE",
"$ c white",
/* pixels */
"                                ",
"                                ",
"                                ",
"             $$$$$$$            ",
"           $$$$$$$$$$$          ",
"          $$$$$$$$$$$$$         ",
"         $$$$$$$$$$$$$$$        ",
"         $$$$$$$$$$$$$$$        ",
"        $$$$$$$$$$$$$$$$$       ",
"        $$$ $ $$$ $ $$$$$       ",
"       $$$$$O$$$$$O$$$$$$$      ",
"       $$$$$O$$$$$O$$$$$$$      ",
"       $$$$$$$$$$$$$$$$$$$      ",
"       $$$$$$$o$o$$$$$$$$$      ",
"       $$$$$$$ooo$$$$$$$$$      ",
"       $$$$$$$$o$$$$$$$$$$      ",
"       $$$$$$$$$$$$$$$$$$$      ",
"        $$$@$@$$$$@$@$$$$       ",
"        $$$@$@$$$$@$@$$$$       ",
"        $$$$@$$$$$$@$$$$        ",
"         $$$@$$$$$$@$$$$        ",
"         $$$$$$$$$$$$$$         ",
"          $$$$$$$$$$$$$         ",
"           $$$$$$$$$$$          ",
"           $$$$$$$$$$           ",
"            $$$$$$$$            ",
"              $$$$$$  $         ",
"               $$$$$$$          ",
"                 $$$$           ",
"                              X ",
"                           XX   ",
"                                "
};
