/* XPM */
static char *bb2c6211932d4d278301d4cef2082350dG7mhs5dlnwuG2vK[] = {
/* columns rows colors chars-per-pixel */
"32 32 9 1 ",
"  c #010100",
". c #000001",
"X c #FE0000",
"o c #006CFF",
"O c #006DFF",
"+ c #86898B",
"@ c #87898B",
"# c #FFFFFE",
"$ c #FEFEFF",
/* pixels */
"................................",
"................................",
"................................",
"............#######.............",
"..........###########...........",
".........#############..........",
"........###############.........",
"........###############.........",
".......#.#.##.#.########........",
".......##O####O##########.......",
".......##O####O##########.......",
".......##################.......",
".......####X#X###########.......",
".......####XXX###########.......",
"......@#####X######+#####.......",
"......@##+#####+###+#####.......",
"......+##+#####+##+######.......",
"......+##+#####+##+#####........",
".......++#######++######........",
".......+########+######.........",
"........###############.........",
"........##############..........",
".........#############..........",
"..........#############.........",
"...........#############........",
"............#############...#...",
"..............##############....",
"...............###########......",
". ..... .........########.......",
"...................####.........",
"..... ..........................",
"................................"
};
