/* XPM */
static char *_fc79d6f231a4fecb696561c93e04065MGT4e2FxooB81wu3[] = {
/* columns rows colors chars-per-pixel */
"32 32 10 1 ",
"  c black",
". c #010100",
"X c #000101",
"o c #FF0001",
"O c #006DFF",
"+ c #86898A",
"@ c #86888B",
"# c #FFFEFE",
"$ c #FEFFFE",
"% c white",
/* pixels */
"                                ",
"                                ",
"                                ",
"             %%%%%%%            ",
"           %%%%%%%%%%%          ",
"          %%%%%%%%%%%%%         ",
"         %%%%%%%%%%%%%%%        ",
"         %%%%%%%%%%%%%%%        ",
"        %%%%%%%% % %% % %       ",
"       %%%%%%%%%%O%%%%O%%       ",
"       %%%%%%%%%%O%%%%O%%       ",
"       %%%%%%%%%%%%%%%%%%       ",
"       %%%%%%%%%%%o%o%%%%       ",
"       %%%%%%%%%%%ooo%%%%       ",
"       %%%%%+%%%%%%o%%%%%+      ",
"       %%%%%+%%%+%%%%%+%%+      ",
"       %%%%%%+%%+%%%%%+%%+      ",
"        %%%%%+%%+%%%%%+%%+      ",
"        %%%%%%@@%%%%%%%++       ",
"         %%%%%%@%%%%%%%%@       ",
"         %%%%%%%%%%%%%%%        ",
"          %%%%%%%%%%%%%%        ",
"          %%%%%%%%%%%%%         ",
"         %%%%%%%%%%%%%          ",
"        %%%%%%%%%%%%%           ",
"   %   %%%%%%%%%%%%%            ",
"    %%%%%%%%%%%%%%              ",
"      %%%%%%%%%%%     X         ",
"       %%%%%%%%                 ",
"         %%%%              X    ",
"                           X    ",
"                      X    X    "
};
