/* XPM */
static char *ghost_back[] = {
/* columns rows colors chars-per-pixel */
"32 32 3 1 ",
"  c black",
"O c #86888B",
"$ c white",
/* pixels */
"                                ",
"                                ",
"                                ",
"           $$$$$$$              ",
"         $$$$$$$$$$$            ",
"        $$$$$$$$$$$$$           ",
"       $$$$$$$$$$$$$$$          ",
"       $$$$$$$$$$$$$$$          ",
"      $$$$$$$$$$$$$$$$$         ",
"     OO$$$$$$$$$$$$$$$$         ",
"     O$$$$$$$$$$$$$$$$$         ",
"     $$$$$$$$$$$$$$$$$$         ",
"     $$$$$$$$$$$$$$$$$$         ",
"     $$$$$$$$$$$$$$$$$$         ",
"     $$$$$$$$$$$$$$$$$$O        ",
"     $$$$$$$$$$$$$$$$$$O        ",
"     O$$$$$$$$$$$$$$$$$O        ",
"      $$$$$$$$$$$$$$$$$O        ",
"      O$$$$$$$$$$$$$$$$         ",
"       $$$$$$$$$$$$$$$$         ",
"       O$$$$$$$$$$$$$$          ",
"        O$$$$$$$$$$$$$          ",
"        $$$$$$$$$$$$$           ",
"        $$$$$$$$$$$$            ",
"         $$$$$$$$$$             ",
"         $O$$$$$$$              ",
"         O$O$$$$                ",
"         O$$$$$                 ",
"                                ",
"                                ",
"                                ",
"                                "
};
