/* XPM */
static char *_2e85e21c47c41579ff5ae53b2cfa6a4r6QznQIAJHWJ6JTp[] = {
/* columns rows colors chars-per-pixel */
"32 32 3 1 ",
"  c black",
"O c #4A4DFF",
"x c #7173FE",
/* pixels */
"             OO                 ",
"             OO     OO          ",
"           OO       OO          ",
"           OO                   ",
"     OO  OOOO                   ",
"     OO  OOOO              OO   ",
"           OOOOOOOO        OO   ",
"           OOOOOOOO             ",
"           OOOOOOOO             ",
"           OOOOOOOO             ",
"           OOOOOOOO             ",
"           OOOOOOOO             ",
"           OOOOOOOOOO           ",
"           OOOOOOOOOO           ",
"  OO     OOOOxxxxOOOOOO  OO     ",
"  OO     OOOOxxxxOOOOOO  OO     ",
"       OOOOOOxxxxxxOOOO         ",
"       OOOOOOxxxxxxOOOO         ",
"         OOxxxxxxxxxxOOOO       ",
"         OOxxxxxxxxxxOOOO       ",
"       OOOOxxxxxxxx  OOOO       ",
"       OOOOxxxxxxxx  OOOO       ",
"       OOOOxxxxxxxx    OOOO     ",
"       OOOOxxxxxxxx    OOOO     ",
"     OOOOxxxxxxxxxxxxxxOOOO     ",
"     OOOOxxxxxxxxxxxxxxOOOO     ",
"       OOOOxx    xxxxxxOO       ",
"       OOOOxx    xxxxxxOO       ",
"         OOOOOO  xxxxOOOO       ",
"         OOOOOO  xxxxOOOO       ",
"             OOOOOOOO           ",
"             OOOOOOOO           "
};
