/* XPM */
static char *_f74b14b777b4d7e99a6ff9325fe05b3gwQCiUZfGpz5TLOv[] = {
/* columns rows colors chars-per-pixel */
"32 32 9 1 ",
"  c black",
". c #010100",
"X c #010001",
"o c #000101",
"O c #484849",
"+ c #C2C6C4",
"@ c #C2C6C5",
"# c #C2C7C5",
"$ c #C3C7C5",
/* pixels */
"                     o          ",
"                                ",
"                      o       o ",
"             $$$$$     o        ",
" o         #####$$##       o  o ",
" oo       ######$$##$        o  ",
" o       #######$###$$          ",
"o        ##########$$$          ",
"        $$$   #  $  $$$         ",
"        $$$$####$$$#$$$ oo      ",
"        $$$$###O$$##$$$         ",
"        $$$$##OOO$$$$$$        o",
"        #$#####O$$$$$$$         ",
" o      #$#####O$$##$$$         ",
"o    o  #######$$$##$$$ X  X  o ",
"       o####   $   #$$$     X   ",
"        $$$$$$$$$$$$$$$         ",
"        #$    $ $    #$         ",
"        ####$$##$$$$$#$         ",
"        #####$##$$$$$$$         ",
"        ########$$####$         ",
"  o     ##############$         ",
"        ###############         ",
"        ###############         ",
"       o###########$$$$      X .",
"        #$#########$$$$         ",
"        $$$$######$$$$$         ",
"       $$$$$######$$$$$$        ",
"      $$$$$$$$$$#$$$$$$$$     o ",
"                       o   o  o ",
"                    X       o   ",
"         o             o o      "
};
