/* XPM */
static char *_f74b14b777b4d7e99a6ff9325fe05b3gwQCiUZfGpz5TLOv[] = {
/* columns rows colors chars-per-pixel */
"32 32 4 1 ",
"  c black",
"+ c #C2C6C4",
"# c #C2C7C5",
"O c #FE0000",
/* pixels */
"                                ",
"                                ",
"            #######             ",
"          ###########           ",
"         #############          ",
"        ###############         ",
"       #################        ",
"       ####   #  #  ####        ",
"       #################        ",
"       ########O########        ",
"       #######OOO#######        ",
"       ########O########        ",
"       ########O########        ",
"       #################        ",
"       #####   #   #####        ",
"       #################        ",
"       ###    # #    ###        ",
"       #################        ",
"       #################        ",
"       #################        ",
"       #################        ",
"       #################        ",
"       #################        ",
"       #################        ",
"       #################        ",
"       #################        ",
"       #################        ",
"       #################        ",
"      ###################       ",
"     #####################      ",
"     #####################      ",
"     #####################      "
};
