/* XPM */
static char *_2e85e21c47c41579ff5ae53b2cfa6a4r6QznQIAJHWJ6JTp[] = {
/* columns rows colors chars-per-pixel */
"32 32 10 1 ",
"  c black",
". c #010100",
"X c #010001",
"o c #4B4CFE",
"O c #4A4DFF",
"+ c #4B4DFF",
"@ c #7073FE",
"# c #7173FE",
"$ c #7073FF",
"% c #7173FF",
/* pixels */
"             +O                 ",
"             OO     OO          ",
"           OO       OO          ",
"           OO                   ",
"     ++  ++O+                   ",
"     ++  ++++              ++   ",
"           +++OO+++        ++   ",
"           O++OO+++             ",
"           +O+OO+++             ",
"           +OOOO+++             ",
"           +OO++O++             ",
"           +OOO+OO+             ",
"           +++++OOOO+           ",
"           +++OOOOOO+           ",
"  ++     ++++##$#OOO+++  ++     ",
" ++     ++++#$$#OOO+++  O+      ",
"       +O++++####$$OOOO         ",
"       +OO+++###$$#OOOO         ",
"         ++$#####$#$#O+++       ",
"         ++######$$$#OO++       ",
"       +++O$#####$#  O+++       ",
"       ++++$#######  ++++       ",
"       OO++$#######    ++++     ",
"       OO++$#######    +O++     ",
"     +++O$$#########$$#OOOO     ",
"     ++++$$########$$$#OOOO     ",
"       +OO+$#    ###$$#OO       ",
"       +OO+$#    ###$$#OO       ",
"         ++++++  ####OO++       ",
"         ++++++  ####++++       ",
"             +O+OOOO+           ",
"             +OOOO+++           "
};
